<svg width="144" height="116" viewBox="0 0 144 116" fill="none" xmlns="http://www.w3.org/2000/svg">
<g clip-path="url(#clip0_476_3817)">
<mask id="mask0_476_3817" style="mask-type:alpha" maskUnits="userSpaceOnUse" x="0" y="0" width="144" height="116">
<rect width="144" height="116" fill="url(#paint0_linear_476_3817)"/>
</mask>
<g mask="url(#mask0_476_3817)">
<path d="M14 -14C15.3987 -7.48662 20.4866 -2.39866 27 -1C20.4866 0.398665 15.3987 5.48662 14 12C12.6013 5.48662 7.51338 0.398665 1 -1C7.51338 -2.39866 12.6013 -7.48662 14 -14Z" fill="#FFEEEC"/>
<path d="M66 -14C67.3987 -7.48662 72.4866 -2.39866 79 -1C72.4866 0.398665 67.3987 5.48662 66 12C64.6013 5.48662 59.5134 0.398665 53 -1C59.5134 -2.39866 64.6013 -7.48662 66 -14Z" fill="#FFE999"/>
<path d="M144 -14C145.399 -7.48662 150.487 -2.39866 157 -1C150.487 0.398665 145.399 5.48662 144 12C142.601 5.48662 137.513 0.398665 131 -1C137.513 -2.39866 142.601 -7.48662 144 -14Z" fill="#FFEEEC"/>
<path d="M14 12C15.3987 18.5134 20.4866 23.6013 27 25C20.4866 26.3987 15.3987 31.4866 14 38C12.6013 31.4866 7.51338 26.3987 1 25C7.51338 23.6013 12.6013 18.5134 14 12Z" fill="#FFEEEC"/>
<path d="M40 12C41.3987 18.5134 46.4866 23.6013 53 25C46.4866 26.3987 41.3987 31.4866 40 38C38.6013 31.4866 33.5134 26.3987 27 25C33.5134 23.6013 38.6013 18.5134 40 12Z" fill="#FFEEEC"/>
<path d="M66 12C67.3987 18.5134 72.4866 23.6013 79 25C72.4866 26.3987 67.3987 31.4866 66 38C64.6013 31.4866 59.5134 26.3987 53 25C59.5134 23.6013 64.6013 18.5134 66 12Z" fill="#FFEEEC"/>
<path d="M92 12C93.3987 18.5134 98.4866 23.6013 105 25C98.4866 26.3987 93.3987 31.4866 92 38C90.6013 31.4866 85.5134 26.3987 79 25C85.5134 23.6013 90.6013 18.5134 92 12Z" fill="#FFEEEC"/>
<path d="M118 12C119.399 18.5134 124.487 23.6013 131 25C124.487 26.3987 119.399 31.4866 118 38C116.601 31.4866 111.513 26.3987 105 25C111.513 23.6013 116.601 18.5134 118 12Z" fill="#FFEEEC"/>
<path d="M144 12C145.399 18.5134 150.487 23.6013 157 25C150.487 26.3987 145.399 31.4866 144 38C142.601 31.4866 137.513 26.3987 131 25C137.513 23.6013 142.601 18.5134 144 12Z" fill="#FFEEEC"/>
<path d="M40 38C41.3987 44.5134 46.4866 49.6013 53 51C46.4866 52.3987 41.3987 57.4866 40 64C38.6013 57.4866 33.5134 52.3987 27 51C33.5134 49.6013 38.6013 44.5134 40 38Z" fill="#FFE999"/>
<path d="M66 38C67.3987 44.5134 72.4866 49.6013 79 51C72.4866 52.3987 67.3987 57.4866 66 64C64.6013 57.4866 59.5134 52.3987 53 51C59.5134 49.6013 64.6013 44.5134 66 38Z" fill="#FFEEEC"/>
<path d="M92 38C93.3987 44.5134 98.4866 49.6013 105 51C98.4866 52.3987 93.3987 57.4866 92 64C90.6013 57.4866 85.5134 52.3987 79 51C85.5134 49.6013 90.6013 44.5134 92 38Z" fill="#FFEEEC"/>
<path d="M118 38C119.399 44.5134 124.487 49.6013 131 51C124.487 52.3987 119.399 57.4866 118 64C116.601 57.4866 111.513 52.3987 105 51C111.513 49.6013 116.601 44.5134 118 38Z" fill="#FFEEEC"/>
<path d="M144 38C145.399 44.5134 150.487 49.6013 157 51C150.487 52.3987 145.399 57.4866 144 64C142.601 57.4866 137.513 52.3987 131 51C137.513 49.6013 142.601 44.5134 144 38Z" fill="#FFEEEC"/>
<path d="M14 64C15.3987 70.5134 20.4866 75.6013 27 77C20.4866 78.3987 15.3987 83.4866 14 90C12.6013 83.4866 7.51338 78.3987 1 77C7.51338 75.6013 12.6013 70.5134 14 64Z" fill="#FFEEEC"/>
<path d="M40 64C41.3987 70.5134 46.4866 75.6013 53 77C46.4866 78.3987 41.3987 83.4866 40 90C38.6013 83.4866 33.5134 78.3987 27 77C33.5134 75.6013 38.6013 70.5134 40 64Z" fill="#FFEEEC"/>
<path d="M66 64C67.3987 70.5134 72.4866 75.6013 79 77C72.4866 78.3987 67.3987 83.4866 66 90C64.6013 83.4866 59.5134 78.3987 53 77C59.5134 75.6013 64.6013 70.5134 66 64Z" fill="#FFEEEC"/>
<path d="M92 64C93.3987 70.5134 98.4866 75.6013 105 77C98.4866 78.3987 93.3987 83.4866 92 90C90.6013 83.4866 85.5134 78.3987 79 77C85.5134 75.6013 90.6013 70.5134 92 64Z" fill="#FFEEEC"/>
<path d="M118 64C119.399 70.5134 124.487 75.6013 131 77C124.487 78.3987 119.399 83.4866 118 90C116.601 83.4866 111.513 78.3987 105 77C111.513 75.6013 116.601 70.5134 118 64Z" fill="#FFE999"/>
<path d="M118 90C119.399 96.5134 124.487 101.601 131 103C124.487 104.399 119.399 109.487 118 116C116.601 109.487 111.513 104.399 105 103C111.513 101.601 116.601 96.5134 118 90Z" fill="#FFEEEC"/>
<path d="M144 90C145.399 96.5134 150.487 101.601 157 103C150.487 104.399 145.399 109.487 144 116C142.601 109.487 137.513 104.399 131 103C137.513 101.601 142.601 96.5134 144 90Z" fill="#FFEEEC"/>
</g>
</g>
<defs>
<linearGradient id="paint0_linear_476_3817" x1="144" y1="-4.37181e-06" x2="24.1484" y2="101.938" gradientUnits="userSpaceOnUse">
<stop stop-color="#D9D9D9"/>
<stop offset="1" stop-color="#D9D9D9" stop-opacity="0"/>
</linearGradient>
<clipPath id="clip0_476_3817">
<rect width="144" height="116" fill="white"/>
</clipPath>
</defs>
</svg>
